<mxfile host="app.diagrams.net" agent="Mozilla/5.0 (Windows NT 10.0; Win64; x64) AppleWebKit/537.36 (KHTML, like Gecko) Chrome/130.0.0.0 Safari/537.36" version="24.8.3">
  <diagram name="PÃ¡gina-1" id="IPSUv2lxcXJaug38CfZl">
    <mxGraphModel dx="1434" dy="746" grid="1" gridSize="10" guides="1" tooltips="1" connect="1" arrows="1" fold="1" page="1" pageScale="1" pageWidth="827" pageHeight="1169" math="0" shadow="0">
      <root>
        <mxCell id="0" />
        <mxCell id="1" parent="0" />
        <mxCell id="rnn-rZoZUoOj6XcOm6-Y-8" value="" style="edgeStyle=orthogonalEdgeStyle;rounded=0;orthogonalLoop=1;jettySize=auto;html=1;entryX=1;entryY=0.75;entryDx=0;entryDy=0;fillColor=#f5f5f5;strokeColor=#666666;" edge="1" parent="1" source="rnn-rZoZUoOj6XcOm6-Y-1" target="rnn-rZoZUoOj6XcOm6-Y-4">
          <mxGeometry relative="1" as="geometry">
            <Array as="points">
              <mxPoint x="635" y="355" />
              <mxPoint x="635" y="320" />
            </Array>
          </mxGeometry>
        </mxCell>
        <mxCell id="rnn-rZoZUoOj6XcOm6-Y-9" style="edgeStyle=orthogonalEdgeStyle;rounded=0;orthogonalLoop=1;jettySize=auto;html=1;fillColor=#f5f5f5;strokeColor=#666666;" edge="1" parent="1" source="rnn-rZoZUoOj6XcOm6-Y-1" target="rnn-rZoZUoOj6XcOm6-Y-6">
          <mxGeometry relative="1" as="geometry" />
        </mxCell>
        <mxCell id="rnn-rZoZUoOj6XcOm6-Y-10" style="edgeStyle=orthogonalEdgeStyle;rounded=0;orthogonalLoop=1;jettySize=auto;html=1;entryX=1;entryY=0.5;entryDx=0;entryDy=0;fillColor=#f5f5f5;strokeColor=#666666;" edge="1" parent="1" source="rnn-rZoZUoOj6XcOm6-Y-1" target="rnn-rZoZUoOj6XcOm6-Y-3">
          <mxGeometry relative="1" as="geometry" />
        </mxCell>
        <mxCell id="rnn-rZoZUoOj6XcOm6-Y-11" style="edgeStyle=orthogonalEdgeStyle;rounded=0;orthogonalLoop=1;jettySize=auto;html=1;entryX=1;entryY=0.5;entryDx=0;entryDy=0;startArrow=classic;startFill=1;fillColor=#f5f5f5;strokeColor=#666666;" edge="1" parent="1" source="rnn-rZoZUoOj6XcOm6-Y-1" target="rnn-rZoZUoOj6XcOm6-Y-5">
          <mxGeometry relative="1" as="geometry" />
        </mxCell>
        <mxCell id="rnn-rZoZUoOj6XcOm6-Y-1" value="db.json" style="rounded=1;whiteSpace=wrap;html=1;fillColor=#f5f5f5;fontColor=#333333;strokeColor=#666666;" vertex="1" parent="1">
          <mxGeometry x="670" y="325" width="120" height="60" as="geometry" />
        </mxCell>
        <mxCell id="rnn-rZoZUoOj6XcOm6-Y-16" value="" style="edgeStyle=orthogonalEdgeStyle;rounded=0;orthogonalLoop=1;jettySize=auto;html=1;fillColor=#ffe6cc;strokeColor=#d79b00;" edge="1" parent="1" source="rnn-rZoZUoOj6XcOm6-Y-3" target="rnn-rZoZUoOj6XcOm6-Y-14">
          <mxGeometry relative="1" as="geometry" />
        </mxCell>
        <mxCell id="rnn-rZoZUoOj6XcOm6-Y-3" value="usuario.service" style="rounded=1;whiteSpace=wrap;html=1;fillColor=#ffe6cc;strokeColor=#d79b00;" vertex="1" parent="1">
          <mxGeometry x="480" y="195" width="120" height="60" as="geometry" />
        </mxCell>
        <mxCell id="rnn-rZoZUoOj6XcOm6-Y-21" value="" style="edgeStyle=orthogonalEdgeStyle;rounded=0;orthogonalLoop=1;jettySize=auto;html=1;fillColor=#ffe6cc;strokeColor=#d79b00;" edge="1" parent="1" source="rnn-rZoZUoOj6XcOm6-Y-4" target="rnn-rZoZUoOj6XcOm6-Y-18">
          <mxGeometry relative="1" as="geometry" />
        </mxCell>
        <mxCell id="rnn-rZoZUoOj6XcOm6-Y-4" value="curso.service" style="rounded=1;whiteSpace=wrap;html=1;fillColor=#ffe6cc;strokeColor=#d79b00;" vertex="1" parent="1">
          <mxGeometry x="480" y="275" width="120" height="60" as="geometry" />
        </mxCell>
        <mxCell id="rnn-rZoZUoOj6XcOm6-Y-23" value="" style="edgeStyle=orthogonalEdgeStyle;rounded=0;orthogonalLoop=1;jettySize=auto;html=1;fillColor=#ffe6cc;strokeColor=#d79b00;" edge="1" parent="1" source="rnn-rZoZUoOj6XcOm6-Y-5" target="rnn-rZoZUoOj6XcOm6-Y-20">
          <mxGeometry relative="1" as="geometry">
            <Array as="points">
              <mxPoint x="540" y="630" />
            </Array>
          </mxGeometry>
        </mxCell>
        <mxCell id="rnn-rZoZUoOj6XcOm6-Y-5" value="atividade.service" style="rounded=1;whiteSpace=wrap;html=1;fillColor=#ffe6cc;strokeColor=#d79b00;" vertex="1" parent="1">
          <mxGeometry x="480" y="435" width="120" height="60" as="geometry" />
        </mxCell>
        <mxCell id="rnn-rZoZUoOj6XcOm6-Y-22" value="" style="edgeStyle=orthogonalEdgeStyle;rounded=0;orthogonalLoop=1;jettySize=auto;html=1;fillColor=#ffe6cc;strokeColor=#d79b00;" edge="1" parent="1" source="rnn-rZoZUoOj6XcOm6-Y-6" target="rnn-rZoZUoOj6XcOm6-Y-19">
          <mxGeometry relative="1" as="geometry">
            <Array as="points">
              <mxPoint x="460" y="385" />
              <mxPoint x="460" y="540" />
            </Array>
          </mxGeometry>
        </mxCell>
        <mxCell id="rnn-rZoZUoOj6XcOm6-Y-6" value="materia.service" style="rounded=1;whiteSpace=wrap;html=1;fillColor=#ffe6cc;strokeColor=#d79b00;" vertex="1" parent="1">
          <mxGeometry x="480" y="355" width="120" height="60" as="geometry" />
        </mxCell>
        <mxCell id="rnn-rZoZUoOj6XcOm6-Y-36" style="edgeStyle=orthogonalEdgeStyle;rounded=0;orthogonalLoop=1;jettySize=auto;html=1;entryX=1;entryY=0.5;entryDx=0;entryDy=0;" edge="1" parent="1" source="rnn-rZoZUoOj6XcOm6-Y-14" target="rnn-rZoZUoOj6XcOm6-Y-35">
          <mxGeometry relative="1" as="geometry" />
        </mxCell>
        <mxCell id="rnn-rZoZUoOj6XcOm6-Y-38" style="edgeStyle=orthogonalEdgeStyle;rounded=0;orthogonalLoop=1;jettySize=auto;html=1;entryX=1;entryY=0.5;entryDx=0;entryDy=0;" edge="1" parent="1" source="rnn-rZoZUoOj6XcOm6-Y-14" target="rnn-rZoZUoOj6XcOm6-Y-37">
          <mxGeometry relative="1" as="geometry" />
        </mxCell>
        <mxCell id="rnn-rZoZUoOj6XcOm6-Y-14" value="usuario.component" style="rounded=1;whiteSpace=wrap;html=1;" vertex="1" parent="1">
          <mxGeometry x="290" y="125" width="120" height="60" as="geometry" />
        </mxCell>
        <mxCell id="rnn-rZoZUoOj6XcOm6-Y-42" style="edgeStyle=orthogonalEdgeStyle;rounded=0;orthogonalLoop=1;jettySize=auto;html=1;entryX=1;entryY=0.5;entryDx=0;entryDy=0;fillColor=#f8cecc;strokeColor=#b85450;" edge="1" parent="1" source="rnn-rZoZUoOj6XcOm6-Y-18" target="rnn-rZoZUoOj6XcOm6-Y-40">
          <mxGeometry relative="1" as="geometry" />
        </mxCell>
        <mxCell id="rnn-rZoZUoOj6XcOm6-Y-43" style="edgeStyle=orthogonalEdgeStyle;rounded=0;orthogonalLoop=1;jettySize=auto;html=1;entryX=1;entryY=0.5;entryDx=0;entryDy=0;fillColor=#f8cecc;strokeColor=#b85450;" edge="1" parent="1" source="rnn-rZoZUoOj6XcOm6-Y-18" target="rnn-rZoZUoOj6XcOm6-Y-41">
          <mxGeometry relative="1" as="geometry" />
        </mxCell>
        <mxCell id="rnn-rZoZUoOj6XcOm6-Y-18" value="curso.component" style="rounded=1;whiteSpace=wrap;html=1;fillColor=#f8cecc;strokeColor=#b85450;" vertex="1" parent="1">
          <mxGeometry x="290" y="275" width="120" height="60" as="geometry" />
        </mxCell>
        <mxCell id="rnn-rZoZUoOj6XcOm6-Y-49" style="edgeStyle=orthogonalEdgeStyle;rounded=0;orthogonalLoop=1;jettySize=auto;html=1;entryX=1;entryY=0.5;entryDx=0;entryDy=0;fillColor=#d5e8d4;strokeColor=#82b366;" edge="1" parent="1" source="rnn-rZoZUoOj6XcOm6-Y-19" target="rnn-rZoZUoOj6XcOm6-Y-48">
          <mxGeometry relative="1" as="geometry" />
        </mxCell>
        <mxCell id="rnn-rZoZUoOj6XcOm6-Y-54" style="edgeStyle=orthogonalEdgeStyle;rounded=0;orthogonalLoop=1;jettySize=auto;html=1;entryX=1;entryY=0.5;entryDx=0;entryDy=0;fillColor=#d5e8d4;strokeColor=#82b366;" edge="1" parent="1" source="rnn-rZoZUoOj6XcOm6-Y-19" target="rnn-rZoZUoOj6XcOm6-Y-45">
          <mxGeometry relative="1" as="geometry" />
        </mxCell>
        <mxCell id="rnn-rZoZUoOj6XcOm6-Y-19" value="materia.component" style="rounded=1;whiteSpace=wrap;html=1;fillColor=#d5e8d4;strokeColor=#82b366;" vertex="1" parent="1">
          <mxGeometry x="290" y="490" width="120" height="60" as="geometry" />
        </mxCell>
        <mxCell id="rnn-rZoZUoOj6XcOm6-Y-52" style="edgeStyle=orthogonalEdgeStyle;rounded=0;orthogonalLoop=1;jettySize=auto;html=1;entryX=1;entryY=0.5;entryDx=0;entryDy=0;fillColor=#dae8fc;strokeColor=#6c8ebf;" edge="1" parent="1" source="rnn-rZoZUoOj6XcOm6-Y-20" target="rnn-rZoZUoOj6XcOm6-Y-50">
          <mxGeometry relative="1" as="geometry" />
        </mxCell>
        <mxCell id="rnn-rZoZUoOj6XcOm6-Y-53" style="edgeStyle=orthogonalEdgeStyle;rounded=0;orthogonalLoop=1;jettySize=auto;html=1;entryX=1;entryY=0.5;entryDx=0;entryDy=0;fillColor=#dae8fc;strokeColor=#6c8ebf;" edge="1" parent="1" source="rnn-rZoZUoOj6XcOm6-Y-20" target="rnn-rZoZUoOj6XcOm6-Y-51">
          <mxGeometry relative="1" as="geometry" />
        </mxCell>
        <mxCell id="rnn-rZoZUoOj6XcOm6-Y-20" value="atividade.component" style="rounded=1;whiteSpace=wrap;html=1;fillColor=#dae8fc;strokeColor=#6c8ebf;" vertex="1" parent="1">
          <mxGeometry x="290" y="655" width="120" height="60" as="geometry" />
        </mxCell>
        <mxCell id="rnn-rZoZUoOj6XcOm6-Y-26" style="edgeStyle=orthogonalEdgeStyle;rounded=0;orthogonalLoop=1;jettySize=auto;html=1;fillColor=#e1d5e7;strokeColor=#9673a6;" edge="1" parent="1" source="rnn-rZoZUoOj6XcOm6-Y-24" target="rnn-rZoZUoOj6XcOm6-Y-14">
          <mxGeometry relative="1" as="geometry" />
        </mxCell>
        <mxCell id="rnn-rZoZUoOj6XcOm6-Y-31" style="edgeStyle=orthogonalEdgeStyle;rounded=0;orthogonalLoop=1;jettySize=auto;html=1;entryX=1;entryY=0.25;entryDx=0;entryDy=0;fillColor=#e1d5e7;strokeColor=#9673a6;" edge="1" parent="1" source="rnn-rZoZUoOj6XcOm6-Y-24" target="rnn-rZoZUoOj6XcOm6-Y-18">
          <mxGeometry relative="1" as="geometry">
            <Array as="points">
              <mxPoint x="470" y="60" />
              <mxPoint x="470" y="290" />
            </Array>
          </mxGeometry>
        </mxCell>
        <mxCell id="rnn-rZoZUoOj6XcOm6-Y-32" style="edgeStyle=orthogonalEdgeStyle;rounded=0;orthogonalLoop=1;jettySize=auto;html=1;fillColor=#e1d5e7;strokeColor=#9673a6;" edge="1" parent="1" source="rnn-rZoZUoOj6XcOm6-Y-24">
          <mxGeometry relative="1" as="geometry">
            <mxPoint x="410" y="520" as="targetPoint" />
            <Array as="points">
              <mxPoint x="450" y="60" />
              <mxPoint x="450" y="520" />
              <mxPoint x="410" y="520" />
            </Array>
          </mxGeometry>
        </mxCell>
        <mxCell id="rnn-rZoZUoOj6XcOm6-Y-33" style="edgeStyle=orthogonalEdgeStyle;rounded=0;orthogonalLoop=1;jettySize=auto;html=1;entryX=1;entryY=0.25;entryDx=0;entryDy=0;fillColor=#e1d5e7;strokeColor=#9673a6;" edge="1" parent="1" source="rnn-rZoZUoOj6XcOm6-Y-24" target="rnn-rZoZUoOj6XcOm6-Y-20">
          <mxGeometry relative="1" as="geometry">
            <Array as="points">
              <mxPoint x="430" y="60" />
              <mxPoint x="430" y="670" />
            </Array>
          </mxGeometry>
        </mxCell>
        <mxCell id="rnn-rZoZUoOj6XcOm6-Y-24" value="app.component" style="rounded=1;whiteSpace=wrap;html=1;fillColor=#e1d5e7;strokeColor=#9673a6;" vertex="1" parent="1">
          <mxGeometry x="290" y="30" width="120" height="60" as="geometry" />
        </mxCell>
        <mxCell id="rnn-rZoZUoOj6XcOm6-Y-35" value="usuario-add.component" style="rounded=1;whiteSpace=wrap;html=1;" vertex="1" parent="1">
          <mxGeometry x="130" y="80" width="120" height="60" as="geometry" />
        </mxCell>
        <mxCell id="rnn-rZoZUoOj6XcOm6-Y-64" style="edgeStyle=orthogonalEdgeStyle;rounded=0;orthogonalLoop=1;jettySize=auto;html=1;entryX=0;entryY=0.75;entryDx=0;entryDy=0;" edge="1" parent="1" source="rnn-rZoZUoOj6XcOm6-Y-37" target="rnn-rZoZUoOj6XcOm6-Y-50">
          <mxGeometry relative="1" as="geometry">
            <Array as="points">
              <mxPoint x="80" y="190" />
              <mxPoint x="80" y="640" />
            </Array>
          </mxGeometry>
        </mxCell>
        <mxCell id="rnn-rZoZUoOj6XcOm6-Y-37" value="usuario-item.component" style="rounded=1;whiteSpace=wrap;html=1;" vertex="1" parent="1">
          <mxGeometry x="130" y="160" width="120" height="60" as="geometry" />
        </mxCell>
        <mxCell id="rnn-rZoZUoOj6XcOm6-Y-40" value="curso-add.component" style="rounded=1;whiteSpace=wrap;html=1;fillColor=#f8cecc;strokeColor=#b85450;" vertex="1" parent="1">
          <mxGeometry x="130" y="240" width="120" height="60" as="geometry" />
        </mxCell>
        <mxCell id="rnn-rZoZUoOj6XcOm6-Y-55" style="edgeStyle=orthogonalEdgeStyle;rounded=0;orthogonalLoop=1;jettySize=auto;html=1;entryX=0.5;entryY=0;entryDx=0;entryDy=0;fillColor=#f8cecc;strokeColor=#b85450;" edge="1" parent="1" source="rnn-rZoZUoOj6XcOm6-Y-41" target="rnn-rZoZUoOj6XcOm6-Y-45">
          <mxGeometry relative="1" as="geometry" />
        </mxCell>
        <mxCell id="rnn-rZoZUoOj6XcOm6-Y-62" style="edgeStyle=orthogonalEdgeStyle;rounded=0;orthogonalLoop=1;jettySize=auto;html=1;entryX=0;entryY=0.5;entryDx=0;entryDy=0;fillColor=#f8cecc;strokeColor=#b85450;" edge="1" parent="1" source="rnn-rZoZUoOj6XcOm6-Y-41" target="rnn-rZoZUoOj6XcOm6-Y-50">
          <mxGeometry relative="1" as="geometry">
            <Array as="points">
              <mxPoint x="110" y="350" />
              <mxPoint x="110" y="625" />
            </Array>
          </mxGeometry>
        </mxCell>
        <mxCell id="rnn-rZoZUoOj6XcOm6-Y-41" value="curso-item.component" style="rounded=1;whiteSpace=wrap;html=1;fillColor=#f8cecc;strokeColor=#b85450;" vertex="1" parent="1">
          <mxGeometry x="130" y="320" width="120" height="60" as="geometry" />
        </mxCell>
        <mxCell id="rnn-rZoZUoOj6XcOm6-Y-45" value="materia-add.component" style="rounded=1;whiteSpace=wrap;html=1;fillColor=#d5e8d4;strokeColor=#82b366;" vertex="1" parent="1">
          <mxGeometry x="130" y="435" width="120" height="60" as="geometry" />
        </mxCell>
        <mxCell id="rnn-rZoZUoOj6XcOm6-Y-61" style="edgeStyle=orthogonalEdgeStyle;rounded=0;orthogonalLoop=1;jettySize=auto;html=1;entryX=0.5;entryY=0;entryDx=0;entryDy=0;fillColor=#d5e8d4;strokeColor=#82b366;" edge="1" parent="1" source="rnn-rZoZUoOj6XcOm6-Y-48" target="rnn-rZoZUoOj6XcOm6-Y-50">
          <mxGeometry relative="1" as="geometry" />
        </mxCell>
        <mxCell id="rnn-rZoZUoOj6XcOm6-Y-48" value="materia-item.component" style="rounded=1;whiteSpace=wrap;html=1;fillColor=#d5e8d4;strokeColor=#82b366;" vertex="1" parent="1">
          <mxGeometry x="130" y="510" width="120" height="60" as="geometry" />
        </mxCell>
        <mxCell id="rnn-rZoZUoOj6XcOm6-Y-50" value="atvidade-add.component" style="rounded=1;whiteSpace=wrap;html=1;fillColor=#dae8fc;strokeColor=#6c8ebf;" vertex="1" parent="1">
          <mxGeometry x="130" y="595" width="120" height="60" as="geometry" />
        </mxCell>
        <mxCell id="rnn-rZoZUoOj6XcOm6-Y-51" value="atividade-item.component" style="rounded=1;whiteSpace=wrap;html=1;fillColor=#dae8fc;strokeColor=#6c8ebf;" vertex="1" parent="1">
          <mxGeometry x="130" y="675" width="120" height="60" as="geometry" />
        </mxCell>
      </root>
    </mxGraphModel>
  </diagram>
</mxfile>
